<mxfile host="app.diagrams.net" modified="2020-10-22T20:37:20.470Z" agent="5.0 (Windows NT 10.0; Win64; x64) AppleWebKit/537.36 (KHTML, like Gecko) Chrome/86.0.4240.75 Safari/537.36" etag="vGuzfinQ2agwIKqFjASs" version="13.8.1" type="github">
  <diagram name="Page-1" id="9f46799a-70d6-7492-0946-bef42562c5a5">
    <mxGraphModel dx="2062" dy="1122" grid="1" gridSize="10" guides="1" tooltips="1" connect="1" arrows="1" fold="1" page="1" pageScale="1" pageWidth="850" pageHeight="1100" background="#ffffff" math="0" shadow="0">
      <root>
        <mxCell id="0" />
        <mxCell id="1" parent="0" />
        <mxCell id="78961159f06e98e8-122" style="edgeStyle=elbowEdgeStyle;html=1;labelBackgroundColor=none;startFill=0;startSize=16;endArrow=none;endFill=0;endSize=8;fontFamily=Verdana;fontSize=12;elbow=vertical;dashed=1;startArrow=block;rounded=0;strokeWidth=1;" parent="1" source="78961159f06e98e8-30" target="78961159f06e98e8-43" edge="1">
          <mxGeometry relative="1" as="geometry" />
        </mxCell>
        <mxCell id="78961159f06e98e8-17" value="&lt;span style=&quot;font-weight: normal&quot;&gt;&lt;i&gt;abstract class&lt;/i&gt; CacheService&lt;/span&gt;" style="swimlane;html=1;fontStyle=1;align=center;verticalAlign=top;childLayout=stackLayout;horizontal=1;startSize=26;horizontalStack=0;resizeParent=1;resizeLast=0;collapsible=1;marginBottom=0;swimlaneFillColor=#ffffff;rounded=0;shadow=0;comic=0;labelBackgroundColor=none;strokeWidth=1;fontFamily=Verdana;fontSize=12;" parent="1" vertex="1">
          <mxGeometry x="180" y="10" width="230" height="150" as="geometry" />
        </mxCell>
        <mxCell id="78961159f06e98e8-19" value="" style="line;html=1;strokeWidth=1;fillColor=none;align=left;verticalAlign=middle;spacingTop=-1;spacingLeft=3;spacingRight=3;rotatable=0;labelPosition=right;points=[];portConstraint=eastwest;" parent="78961159f06e98e8-17" vertex="1">
          <mxGeometry y="26" width="230" height="8" as="geometry" />
        </mxCell>
        <mxCell id="78961159f06e98e8-20" value="getItem&amp;lt;T&amp;gt;(key: string): T | null" style="text;html=1;strokeColor=#36393d;fillColor=#eeeeee;align=left;verticalAlign=top;spacingLeft=4;spacingRight=4;whiteSpace=wrap;overflow=hidden;rotatable=0;points=[[0,0.5],[1,0.5]];portConstraint=eastwest;" parent="78961159f06e98e8-17" vertex="1">
          <mxGeometry y="34" width="230" height="26" as="geometry" />
        </mxCell>
        <mxCell id="78961159f06e98e8-27" value="setItem(key: string, data: object | string)" style="text;html=1;strokeColor=#36393d;fillColor=#eeeeee;align=left;verticalAlign=top;spacingLeft=4;spacingRight=4;whiteSpace=wrap;overflow=hidden;rotatable=0;points=[[0,0.5],[1,0.5]];portConstraint=eastwest;" parent="78961159f06e98e8-17" vertex="1">
          <mxGeometry y="60" width="230" height="26" as="geometry" />
        </mxCell>
        <mxCell id="Gj1qU3hym3HrmNc60uJq-1" value="removeItem(key: string)" style="text;html=1;strokeColor=#36393d;fillColor=#eeeeee;align=left;verticalAlign=top;spacingLeft=4;spacingRight=4;whiteSpace=wrap;overflow=hidden;rotatable=0;points=[[0,0.5],[1,0.5]];portConstraint=eastwest;" vertex="1" parent="78961159f06e98e8-17">
          <mxGeometry y="86" width="230" height="26" as="geometry" />
        </mxCell>
        <mxCell id="Gj1qU3hym3HrmNc60uJq-2" value="clear()" style="text;html=1;strokeColor=#36393d;fillColor=#eeeeee;align=left;verticalAlign=top;spacingLeft=4;spacingRight=4;whiteSpace=wrap;overflow=hidden;rotatable=0;points=[[0,0.5],[1,0.5]];portConstraint=eastwest;" vertex="1" parent="78961159f06e98e8-17">
          <mxGeometry y="112" width="230" height="26" as="geometry" />
        </mxCell>
        <mxCell id="78961159f06e98e8-30" value="&lt;span style=&quot;font-weight: normal&quot;&gt;&amp;lt;&amp;lt;&lt;i&gt;Interface&lt;/i&gt;&amp;gt;&amp;gt;&lt;br&gt;IAuthService&lt;br&gt;&lt;/span&gt;" style="swimlane;html=1;fontStyle=1;align=center;verticalAlign=top;childLayout=stackLayout;horizontal=1;startSize=40;horizontalStack=0;resizeParent=1;resizeLast=0;collapsible=1;marginBottom=0;swimlaneFillColor=#ffffff;rounded=0;shadow=0;comic=0;labelBackgroundColor=none;strokeWidth=1;fontFamily=Verdana;fontSize=12;swimlaneLine=1;resizeHeight=0;" parent="1" vertex="1">
          <mxGeometry x="40" y="360" width="320" height="180" as="geometry">
            <mxRectangle x="60" y="220" width="130" height="30" as="alternateBounds" />
          </mxGeometry>
        </mxCell>
        <mxCell id="78961159f06e98e8-34" value="authStatus$: BehviorSubject&amp;lt;IAutStatus&amp;gt;" style="text;html=1;strokeColor=#36393d;fillColor=#eeeeee;align=left;verticalAlign=top;spacingLeft=4;spacingRight=4;whiteSpace=wrap;overflow=hidden;rotatable=0;points=[[0,0.5],[1,0.5]];portConstraint=eastwest;" parent="78961159f06e98e8-30" vertex="1">
          <mxGeometry y="40" width="320" height="26" as="geometry" />
        </mxCell>
        <mxCell id="78961159f06e98e8-36" value="currentUser$: BehaviorSubject&amp;lt;User&amp;gt;" style="text;html=1;strokeColor=#36393d;fillColor=#eeeeee;align=left;verticalAlign=top;spacingLeft=4;spacingRight=4;whiteSpace=wrap;overflow=hidden;rotatable=0;points=[[0,0.5],[1,0.5]];portConstraint=eastwest;" parent="78961159f06e98e8-30" vertex="1">
          <mxGeometry y="66" width="320" height="26" as="geometry" />
        </mxCell>
        <mxCell id="78961159f06e98e8-38" value="" style="line;html=1;strokeWidth=1;fillColor=none;align=left;verticalAlign=middle;spacingTop=-1;spacingLeft=3;spacingRight=3;rotatable=0;labelPosition=right;points=[];portConstraint=eastwest;" parent="78961159f06e98e8-30" vertex="1">
          <mxGeometry y="92" width="320" height="8" as="geometry" />
        </mxCell>
        <mxCell id="78961159f06e98e8-39" value="login(email: string, password, string): Observable&amp;lt;void&amp;gt;" style="text;html=1;strokeColor=#36393d;fillColor=#eeeeee;align=left;verticalAlign=top;spacingLeft=4;spacingRight=4;whiteSpace=wrap;overflow=hidden;rotatable=0;points=[[0,0.5],[1,0.5]];portConstraint=eastwest;" parent="78961159f06e98e8-30" vertex="1">
          <mxGeometry y="100" width="320" height="26" as="geometry" />
        </mxCell>
        <mxCell id="78961159f06e98e8-40" value="logout(clearToken: boolean): void" style="text;html=1;strokeColor=#36393d;fillColor=#eeeeee;align=left;verticalAlign=top;spacingLeft=4;spacingRight=4;whiteSpace=wrap;overflow=hidden;rotatable=0;points=[[0,0.5],[1,0.5]];portConstraint=eastwest;" parent="78961159f06e98e8-30" vertex="1">
          <mxGeometry y="126" width="320" height="26" as="geometry" />
        </mxCell>
        <mxCell id="78961159f06e98e8-42" value="getToken(): string" style="text;html=1;strokeColor=#36393d;fillColor=#eeeeee;align=left;verticalAlign=top;spacingLeft=4;spacingRight=4;whiteSpace=wrap;overflow=hidden;rotatable=0;points=[[0,0.5],[1,0.5]];portConstraint=eastwest;" parent="78961159f06e98e8-30" vertex="1">
          <mxGeometry y="152" width="320" height="26" as="geometry" />
        </mxCell>
        <mxCell id="Gj1qU3hym3HrmNc60uJq-16" style="edgeStyle=orthogonalEdgeStyle;rounded=0;orthogonalLoop=1;jettySize=auto;html=1;entryX=0.5;entryY=1;entryDx=0;entryDy=0;endArrow=block;endFill=0;endSize=16;startSize=8;" edge="1" parent="1" source="78961159f06e98e8-43" target="78961159f06e98e8-17">
          <mxGeometry relative="1" as="geometry">
            <Array as="points">
              <mxPoint x="600" y="210" />
              <mxPoint x="295" y="210" />
            </Array>
          </mxGeometry>
        </mxCell>
        <mxCell id="Gj1qU3hym3HrmNc60uJq-20" style="edgeStyle=orthogonalEdgeStyle;rounded=0;orthogonalLoop=1;jettySize=auto;html=1;startArrow=block;startFill=0;startSize=16;endArrow=none;endFill=0;endSize=8;targetPerimeterSpacing=10;strokeWidth=1;entryX=0.5;entryY=0;entryDx=0;entryDy=0;" edge="1" parent="1" source="78961159f06e98e8-43" target="78961159f06e98e8-108">
          <mxGeometry relative="1" as="geometry" />
        </mxCell>
        <mxCell id="Gj1qU3hym3HrmNc60uJq-21" style="edgeStyle=orthogonalEdgeStyle;rounded=0;orthogonalLoop=1;jettySize=auto;html=1;startArrow=block;startFill=0;startSize=16;endArrow=none;endFill=0;endSize=8;targetPerimeterSpacing=10;strokeWidth=1;entryX=0.5;entryY=0;entryDx=0;entryDy=0;" edge="1" parent="1" source="78961159f06e98e8-43" target="78961159f06e98e8-95">
          <mxGeometry relative="1" as="geometry" />
        </mxCell>
        <mxCell id="Gj1qU3hym3HrmNc60uJq-23" style="edgeStyle=orthogonalEdgeStyle;rounded=0;orthogonalLoop=1;jettySize=auto;html=1;entryX=0.592;entryY=0;entryDx=0;entryDy=0;entryPerimeter=0;startArrow=block;startFill=0;startSize=16;endArrow=none;endFill=0;endSize=8;targetPerimeterSpacing=10;strokeWidth=1;" edge="1" parent="1" source="78961159f06e98e8-43" target="78961159f06e98e8-82">
          <mxGeometry relative="1" as="geometry">
            <Array as="points">
              <mxPoint x="600" y="600" />
              <mxPoint x="188" y="600" />
            </Array>
          </mxGeometry>
        </mxCell>
        <mxCell id="78961159f06e98e8-43" value="&lt;span style=&quot;font-weight: normal&quot;&gt;&lt;i&gt;abstract class&lt;/i&gt;&amp;nbsp;AuthService&lt;/span&gt;" style="swimlane;html=1;fontStyle=1;align=center;verticalAlign=top;childLayout=stackLayout;horizontal=1;startSize=26;horizontalStack=0;resizeParent=1;resizeLast=0;collapsible=1;marginBottom=0;swimlaneFillColor=#ffffff;rounded=0;shadow=0;comic=0;labelBackgroundColor=none;strokeWidth=1;fontFamily=Verdana;fontSize=12" parent="1" vertex="1">
          <mxGeometry x="460" y="260" width="280" height="250" as="geometry" />
        </mxCell>
        <mxCell id="78961159f06e98e8-44" value="authStatus$" style="text;html=1;strokeColor=#36393d;fillColor=#eeeeee;align=left;verticalAlign=top;spacingLeft=4;spacingRight=4;whiteSpace=wrap;overflow=hidden;rotatable=0;points=[[0,0.5],[1,0.5]];portConstraint=eastwest;" parent="78961159f06e98e8-43" vertex="1">
          <mxGeometry y="26" width="280" height="26" as="geometry" />
        </mxCell>
        <mxCell id="78961159f06e98e8-45" value="currentUser$" style="text;html=1;strokeColor=#36393d;fillColor=#eeeeee;align=left;verticalAlign=top;spacingLeft=4;spacingRight=4;whiteSpace=wrap;overflow=hidden;rotatable=0;points=[[0,0.5],[1,0.5]];portConstraint=eastwest;" parent="78961159f06e98e8-43" vertex="1">
          <mxGeometry y="52" width="280" height="26" as="geometry" />
        </mxCell>
        <mxCell id="78961159f06e98e8-51" value="" style="line;html=1;strokeWidth=1;fillColor=none;align=left;verticalAlign=middle;spacingTop=-1;spacingLeft=3;spacingRight=3;rotatable=0;labelPosition=right;points=[];portConstraint=eastwest;" parent="78961159f06e98e8-43" vertex="1">
          <mxGeometry y="78" width="280" height="8" as="geometry" />
        </mxCell>
        <mxCell id="78961159f06e98e8-52" value="login(email, passowrd)" style="text;html=1;strokeColor=#36393d;fillColor=#eeeeee;align=left;verticalAlign=top;spacingLeft=4;spacingRight=4;whiteSpace=wrap;overflow=hidden;rotatable=0;points=[[0,0.5],[1,0.5]];portConstraint=eastwest;" parent="78961159f06e98e8-43" vertex="1">
          <mxGeometry y="86" width="280" height="26" as="geometry" />
        </mxCell>
        <mxCell id="78961159f06e98e8-53" value="logout()" style="text;html=1;strokeColor=#36393d;fillColor=#eeeeee;align=left;verticalAlign=top;spacingLeft=4;spacingRight=4;whiteSpace=wrap;overflow=hidden;rotatable=0;points=[[0,0.5],[1,0.5]];portConstraint=eastwest;" parent="78961159f06e98e8-43" vertex="1">
          <mxGeometry y="112" width="280" height="26" as="geometry" />
        </mxCell>
        <mxCell id="Gj1qU3hym3HrmNc60uJq-4" value="getToken()" style="text;html=1;strokeColor=#36393d;fillColor=#eeeeee;align=left;verticalAlign=top;spacingLeft=4;spacingRight=4;whiteSpace=wrap;overflow=hidden;rotatable=0;points=[[0,0.5],[1,0.5]];portConstraint=eastwest;" vertex="1" parent="78961159f06e98e8-43">
          <mxGeometry y="138" width="280" height="26" as="geometry" />
        </mxCell>
        <mxCell id="Gj1qU3hym3HrmNc60uJq-6" value="" style="line;html=1;strokeWidth=1;fillColor=none;align=left;verticalAlign=middle;spacingTop=-1;spacingLeft=3;spacingRight=3;rotatable=0;labelPosition=right;points=[];portConstraint=eastwest;" vertex="1" parent="78961159f06e98e8-43">
          <mxGeometry y="164" width="280" height="8" as="geometry" />
        </mxCell>
        <mxCell id="Gj1qU3hym3HrmNc60uJq-7" value="&lt;i&gt;abstract&lt;/i&gt;&amp;nbsp;authProvider(email, passworkd)()" style="text;html=1;strokeColor=#36393d;fillColor=#eeeeee;align=left;verticalAlign=top;spacingLeft=4;spacingRight=4;whiteSpace=wrap;overflow=hidden;rotatable=0;points=[[0,0.5],[1,0.5]];portConstraint=eastwest;" vertex="1" parent="78961159f06e98e8-43">
          <mxGeometry y="172" width="280" height="26" as="geometry" />
        </mxCell>
        <mxCell id="Gj1qU3hym3HrmNc60uJq-8" value="&lt;i&gt;abstract&lt;/i&gt;&amp;nbsp;getCurrentUser(): Observable&amp;lt;User&amp;gt;" style="text;html=1;strokeColor=#36393d;fillColor=#eeeeee;align=left;verticalAlign=top;spacingLeft=4;spacingRight=4;whiteSpace=wrap;overflow=hidden;rotatable=0;points=[[0,0.5],[1,0.5]];portConstraint=eastwest;" vertex="1" parent="78961159f06e98e8-43">
          <mxGeometry y="198" width="280" height="26" as="geometry" />
        </mxCell>
        <mxCell id="Gj1qU3hym3HrmNc60uJq-9" value="&lt;i&gt;abstract&lt;/i&gt;&amp;nbsp;transformJSONToken(token): IAutStatus" style="text;html=1;strokeColor=#36393d;fillColor=#eeeeee;align=left;verticalAlign=top;spacingLeft=4;spacingRight=4;whiteSpace=wrap;overflow=hidden;rotatable=0;points=[[0,0.5],[1,0.5]];portConstraint=eastwest;" vertex="1" parent="78961159f06e98e8-43">
          <mxGeometry y="224" width="280" height="26" as="geometry" />
        </mxCell>
        <mxCell id="78961159f06e98e8-82" value="&lt;div&gt;&lt;i style=&quot;font-weight: normal&quot;&gt;class&lt;/i&gt;&lt;span style=&quot;font-weight: normal&quot;&gt;&amp;nbsp;InMemoryAuthService&amp;nbsp;&lt;/span&gt;&lt;/div&gt;&lt;span style=&quot;font-weight: normal&quot;&gt;&lt;div style=&quot;text-align: left&quot;&gt;&lt;i&gt;extends&lt;/i&gt;&lt;span&gt;&amp;nbsp;AuthService&lt;/span&gt;&lt;/div&gt;&lt;/span&gt;" style="swimlane;html=1;fontStyle=1;align=center;verticalAlign=top;childLayout=stackLayout;horizontal=1;startSize=40;horizontalStack=0;resizeParent=1;resizeLast=0;collapsible=1;marginBottom=0;swimlaneFillColor=#ffffff;rounded=0;shadow=0;comic=0;labelBackgroundColor=none;strokeWidth=1;fontFamily=Verdana;fontSize=12" parent="1" vertex="1">
          <mxGeometry x="40" y="680" width="220" height="126" as="geometry" />
        </mxCell>
        <mxCell id="78961159f06e98e8-90" value="" style="line;html=1;strokeWidth=1;fillColor=none;align=left;verticalAlign=middle;spacingTop=-1;spacingLeft=3;spacingRight=3;rotatable=0;labelPosition=right;points=[];portConstraint=eastwest;" parent="78961159f06e98e8-82" vertex="1">
          <mxGeometry y="40" width="220" height="8" as="geometry" />
        </mxCell>
        <mxCell id="78961159f06e98e8-91" value="authProvider(email, password() ..." style="text;html=1;strokeColor=#36393d;fillColor=#eeeeee;align=left;verticalAlign=top;spacingLeft=4;spacingRight=4;whiteSpace=wrap;overflow=hidden;rotatable=0;points=[[0,0.5],[1,0.5]];portConstraint=eastwest;" parent="78961159f06e98e8-82" vertex="1">
          <mxGeometry y="48" width="220" height="26" as="geometry" />
        </mxCell>
        <mxCell id="78961159f06e98e8-94" value="getCurrentUser(): Observable&amp;lt;User&amp;gt;" style="text;html=1;strokeColor=#36393d;fillColor=#eeeeee;align=left;verticalAlign=top;spacingLeft=4;spacingRight=4;whiteSpace=wrap;overflow=hidden;rotatable=0;points=[[0,0.5],[1,0.5]];portConstraint=eastwest;" parent="78961159f06e98e8-82" vertex="1">
          <mxGeometry y="74" width="220" height="26" as="geometry" />
        </mxCell>
        <mxCell id="Gj1qU3hym3HrmNc60uJq-17" value="transformJwtToken(token): IAuthStatus" style="text;html=1;strokeColor=#36393d;fillColor=#eeeeee;align=left;verticalAlign=top;spacingLeft=4;spacingRight=4;whiteSpace=wrap;overflow=hidden;rotatable=0;points=[[0,0.5],[1,0.5]];portConstraint=eastwest;" vertex="1" parent="78961159f06e98e8-82">
          <mxGeometry y="100" width="220" height="26" as="geometry" />
        </mxCell>
        <mxCell id="78961159f06e98e8-95" value="&lt;div style=&quot;text-align: left&quot;&gt;&lt;i style=&quot;font-weight: normal&quot;&gt;class&lt;/i&gt;&lt;span style=&quot;font-weight: normal&quot;&gt;&amp;nbsp;Firebase AuthService&lt;/span&gt;&lt;/div&gt;&lt;span style=&quot;font-weight: normal&quot;&gt;&lt;div style=&quot;text-align: left&quot;&gt;&lt;i&gt;extends&lt;/i&gt;&lt;span&gt;&amp;nbsp;AuthService&lt;/span&gt;&lt;/div&gt;&lt;/span&gt;" style="swimlane;html=1;fontStyle=1;align=center;verticalAlign=top;childLayout=stackLayout;horizontal=1;startSize=40;horizontalStack=0;resizeParent=1;resizeLast=0;collapsible=1;marginBottom=0;swimlaneFillColor=#ffffff;rounded=0;shadow=0;comic=0;labelBackgroundColor=none;strokeWidth=1;fillColor=none;fontFamily=Verdana;fontSize=12" parent="1" vertex="1">
          <mxGeometry x="300" y="680" width="220" height="152" as="geometry" />
        </mxCell>
        <mxCell id="78961159f06e98e8-102" value="logout()" style="text;html=1;strokeColor=#36393d;fillColor=#eeeeee;align=left;verticalAlign=top;spacingLeft=4;spacingRight=4;whiteSpace=wrap;overflow=hidden;rotatable=0;points=[[0,0.5],[1,0.5]];portConstraint=eastwest;" parent="78961159f06e98e8-95" vertex="1">
          <mxGeometry y="40" width="220" height="26" as="geometry" />
        </mxCell>
        <mxCell id="78961159f06e98e8-103" value="" style="line;html=1;strokeWidth=1;fillColor=none;align=left;verticalAlign=middle;spacingTop=-1;spacingLeft=3;spacingRight=3;rotatable=0;labelPosition=right;points=[];portConstraint=eastwest;" parent="78961159f06e98e8-95" vertex="1">
          <mxGeometry y="66" width="220" height="8" as="geometry" />
        </mxCell>
        <mxCell id="Gj1qU3hym3HrmNc60uJq-24" value="authProvider(email, password() ..." style="text;html=1;strokeColor=#36393d;fillColor=#eeeeee;align=left;verticalAlign=top;spacingLeft=4;spacingRight=4;whiteSpace=wrap;overflow=hidden;rotatable=0;points=[[0,0.5],[1,0.5]];portConstraint=eastwest;" vertex="1" parent="78961159f06e98e8-95">
          <mxGeometry y="74" width="220" height="26" as="geometry" />
        </mxCell>
        <mxCell id="Gj1qU3hym3HrmNc60uJq-25" value="getCurrentUser(): Observable&amp;lt;User&amp;gt;" style="text;html=1;strokeColor=#36393d;fillColor=#eeeeee;align=left;verticalAlign=top;spacingLeft=4;spacingRight=4;whiteSpace=wrap;overflow=hidden;rotatable=0;points=[[0,0.5],[1,0.5]];portConstraint=eastwest;" vertex="1" parent="78961159f06e98e8-95">
          <mxGeometry y="100" width="220" height="26" as="geometry" />
        </mxCell>
        <mxCell id="Gj1qU3hym3HrmNc60uJq-26" value="transformJwtToken(token): IAuthStatus" style="text;html=1;strokeColor=#36393d;fillColor=#eeeeee;align=left;verticalAlign=top;spacingLeft=4;spacingRight=4;whiteSpace=wrap;overflow=hidden;rotatable=0;points=[[0,0.5],[1,0.5]];portConstraint=eastwest;" vertex="1" parent="78961159f06e98e8-95">
          <mxGeometry y="126" width="220" height="26" as="geometry" />
        </mxCell>
        <mxCell id="78961159f06e98e8-108" value="&lt;span style=&quot;font-weight: normal&quot;&gt;&lt;i&gt;class&lt;/i&gt;&amp;nbsp;CustomAuthService&amp;nbsp;&lt;br&gt;&lt;div style=&quot;text-align: left&quot;&gt;&lt;i&gt;extends&lt;/i&gt;&lt;span&gt;&amp;nbsp;AuthService&lt;/span&gt;&lt;/div&gt;&lt;/span&gt;" style="swimlane;html=1;fontStyle=1;align=center;verticalAlign=top;childLayout=stackLayout;horizontal=1;startSize=40;horizontalStack=0;resizeParent=1;resizeLast=0;collapsible=1;marginBottom=0;swimlaneFillColor=#ffffff;rounded=0;shadow=0;comic=0;labelBackgroundColor=none;strokeWidth=1;fillColor=none;fontFamily=Verdana;fontSize=12" parent="1" vertex="1">
          <mxGeometry x="560" y="680" width="220" height="126" as="geometry" />
        </mxCell>
        <mxCell id="78961159f06e98e8-116" value="" style="line;html=1;strokeWidth=1;fillColor=none;align=left;verticalAlign=middle;spacingTop=-1;spacingLeft=3;spacingRight=3;rotatable=0;labelPosition=right;points=[];portConstraint=eastwest;" parent="78961159f06e98e8-108" vertex="1">
          <mxGeometry y="40" width="220" height="8" as="geometry" />
        </mxCell>
        <mxCell id="Gj1qU3hym3HrmNc60uJq-30" value="authProvider(email, password() ..." style="text;html=1;strokeColor=#36393d;fillColor=#eeeeee;align=left;verticalAlign=top;spacingLeft=4;spacingRight=4;whiteSpace=wrap;overflow=hidden;rotatable=0;points=[[0,0.5],[1,0.5]];portConstraint=eastwest;" vertex="1" parent="78961159f06e98e8-108">
          <mxGeometry y="48" width="220" height="26" as="geometry" />
        </mxCell>
        <mxCell id="Gj1qU3hym3HrmNc60uJq-31" value="getCurrentUser(): Observable&amp;lt;User&amp;gt;" style="text;html=1;strokeColor=#36393d;fillColor=#eeeeee;align=left;verticalAlign=top;spacingLeft=4;spacingRight=4;whiteSpace=wrap;overflow=hidden;rotatable=0;points=[[0,0.5],[1,0.5]];portConstraint=eastwest;" vertex="1" parent="78961159f06e98e8-108">
          <mxGeometry y="74" width="220" height="26" as="geometry" />
        </mxCell>
        <mxCell id="Gj1qU3hym3HrmNc60uJq-32" value="transformJwtToken(token): IAuthStatus" style="text;html=1;strokeColor=#36393d;fillColor=#eeeeee;align=left;verticalAlign=top;spacingLeft=4;spacingRight=4;whiteSpace=wrap;overflow=hidden;rotatable=0;points=[[0,0.5],[1,0.5]];portConstraint=eastwest;" vertex="1" parent="78961159f06e98e8-108">
          <mxGeometry y="100" width="220" height="26" as="geometry" />
        </mxCell>
      </root>
    </mxGraphModel>
  </diagram>
</mxfile>
